<?xml version="1.0" encoding="utf-8"?>
<!-- Generator: Adobe Illustrator 16.0.0, SVG Export Plug-In . SVG Version: 6.00 Build 0)  -->
<!DOCTYPE svg PUBLIC "-//W3C//DTD SVG 1.1//EN" "http://www.w3.org/Graphics/SVG/1.1/DTD/svg11.dtd">
<svg version="1.1" id="Layer_1" xmlns="http://www.w3.org/2000/svg" xmlns:xlink="http://www.w3.org/1999/xlink" x="0px" y="0px"
	 width="2764px" height="572px" viewBox="0 0 2764 572" enable-background="new 0 0 2764 572" xml:space="preserve">
<path fill-rule="evenodd" clip-rule="evenodd" d="M2595,225v197c0,0-1.908,21.203,7,31c8.043,8.844,30,8,30,8h24v53h-67
	c0,0-42.553,1.979-62-20c-16.881-19.076-16-62-16-62V225h-79v-53h79v-57h-832V62h916v110h107v53H2595L2595,225z M1722,514h-271v-53
	h93V116h-367c0,0-24.749-1.913-59,18c-44.113,25.644-81,66-81,66L926.989,313.988L1022,514h-87l-65.869-140.066L788,458
	c0,0-19.738,19.695-58,38c-37.814,18.092-71,18-71,18l-271,1V62h264v53l-180,1v135h131v52H472v157h191c0,0,21.142-1.156,46-13
	c28.92-13.777,44-29,44-29l92.225-95.561L722,61l86,1l95.087,200.491L1002,160c0,0,49.138-51.582,98-77c46.003-23.931,78-20,78-20
	l449-1v399h95V514L1722,514z M253,514H56V63h201c0,0,23.582-0.607,48,29c25.091,30.425,26,79,26,79v237c0,0-1.869,40.207-19,67
	C286.796,514.418,253,514,253,514L253,514z M253,176c0,0-0.782-20.946-12-42c-7.364-13.818-22-17-22-17h-81v344h78
	c0,0,13.465,1.941,27-21c9.131-15.477,10-41,10-41V176L253,176z M1142,194c21.178-25.4,63-22,63-22h127c0,0,28.36-1.924,51,28
	c17.404,23.003,16,65,16,65v20c0,0,1.156,36.854-18,64c-14.997,21.25-47,23-47,23h-131v44c0,0-0.593,19.139,6,33
	c5.396,11.342,26,12,26,12l135-1v54h-167c0,0-38.902,4.4-64-27c-20.967-26.229-19-84-19-84V268C1120,268,1117.847,222.963,1142,194
	L1142,194z M1203,323h93c0,0,13.91-0.561,20-7c6.662-7.043,8-26,8-26v-33c0,0-0.6-16.367-6-24c-5.385-7.611-19-8-19-8h-63
	c-0.204-0.487-14.622-0.273-24.036,8.294C1204.789,239.826,1203,270,1203,270V323L1203,323z M1796,194c21.178-25.4,63-22,63-22h127
	c0,0,28.359-1.924,51,28c17.404,23.003,16,65,16,65v20c0,0,1.156,36.854-18,64c-14.996,21.25-47,23-47,23h-131v44
	c0,0-0.592,19.139,6,33c5.396,11.342,26,12,26,12l135-1v54h-167c0,0-38.902,4.4-64-27c-20.967-26.229-19-84-19-84V268
	C1774,268,1771.848,222.963,1796,194L1796,194z M1857,323h93c0,0,13.908-0.561,20-7c6.662-7.043,8-26,8-26v-33c0,0-0.6-16.367-6-24
	c-5.385-7.611-19-8-19-8h-63c-0.203-0.487-14.621-0.273-24.037,8.294C1858.789,239.826,1857,270,1857,270V323L1857,323z M2105,273
	c0,0,0.313-51.756,19-75c24.607-30.607,67-26,67-26h184v53h-152c0,0-19.625-0.924-26,10c-9.393,16.102-8,45-8,45v133
	c-0.16,0.17-0.072,28.92,10.832,39.422c11.346,10.928,33.156,9.105,46.699,9.549L2375,462v52h-188c0,0-41.807,0.945-62-25
	c-23.949-30.771-20-89-20-89V273L2105,273z"/>
</svg>
